# https://github.com/mikedh/trimesh
v 0.00000000 0.00000000 0.00000000
v 0.15000000 0.00000000 0.00000000
v 0.15000000 0.00000000 1.80000000
v 0.00000000 0.00000000 1.80000000
v 0.13858193 0.05740251 0.00000000
v 0.13858193 0.05740251 1.80000000
v 0.10606602 0.10606602 0.00000000
v 0.10606602 0.10606602 1.80000000
v 0.05740251 0.13858193 0.00000000
v 0.05740251 0.13858193 1.80000000
v 0.00000000 0.15000000 0.00000000
v 0.00000000 0.15000000 1.80000000
v -0.05740251 0.13858193 0.00000000
v -0.05740251 0.13858193 1.80000000
v -0.10606602 0.10606602 0.00000000
v -0.10606602 0.10606602 1.80000000
v -0.13858193 0.05740251 0.00000000
v -0.13858193 0.05740251 1.80000000
v -0.15000000 0.00000000 0.00000000
v -0.15000000 0.00000000 1.80000000
v -0.13858193 -0.05740251 0.00000000
v -0.13858193 -0.05740251 1.80000000
v -0.10606602 -0.10606602 0.00000000
v -0.10606602 -0.10606602 1.80000000
v -0.05740251 -0.13858193 0.00000000
v -0.05740251 -0.13858193 1.80000000
v -0.00000000 -0.15000000 0.00000000
v -0.00000000 -0.15000000 1.80000000
v 0.05740251 -0.13858193 0.00000000
v 0.05740251 -0.13858193 1.80000000
v 0.10606602 -0.10606602 0.00000000
v 0.10606602 -0.10606602 1.80000000
v 0.13858193 -0.05740251 0.00000000
v 0.13858193 -0.05740251 1.80000000
v 0.00000000 0.00000000 1.80000000
v 0.04330127 0.00000000 1.77500000
v 0.79330127 0.00000000 3.07403811
v 0.75000000 0.00000000 3.09903811
v 0.03061862 0.03535534 1.78232233
v 0.78061862 0.03535534 3.08136044
v 0.00000000 0.05000000 1.80000000
v 0.75000000 0.05000000 3.09903811
v -0.03061862 0.03535534 1.81767767
v 0.71938138 0.03535534 3.11671578
v -0.04330127 0.00000000 1.82500000
v 0.70669873 0.00000000 3.12403811
v -0.03061862 -0.03535534 1.81767767
v 0.71938138 -0.03535534 3.11671578
v -0.00000000 -0.05000000 1.80000000
v 0.75000000 -0.05000000 3.09903811
v 0.03061862 -0.03535534 1.78232233
v 0.78061862 -0.03535534 3.08136044
v 0.00000000 0.00000000 1.80000000
v 0.01338083 0.04118196 1.77500000
v 0.24514357 0.75447434 3.07403811
v 0.23176275 0.71329239 3.09903811
v -0.02416325 0.04004544 1.78232233
v 0.20759949 0.75333783 3.08136044
v -0.04755283 0.01545085 1.80000000
v 0.18420992 0.72874324 3.09903811
v -0.04308660 -0.01819464 1.81767767
v 0.18867615 0.69509775 3.11671578
v -0.01338083 -0.04118196 1.82500000
v 0.21838192 0.67211043 3.12403811
v 0.02416325 -0.04004544 1.81767767
v 0.25592600 0.67324695 3.11671578
v 0.04755283 -0.01545085 1.80000000
v 0.27931557 0.69784154 3.09903811
v 0.04308660 0.01819464 1.78232233
v 0.27484935 0.73148703 3.08136044
v 0.00000000 0.00000000 1.80000000
v -0.03503146 0.02545185 1.77500000
v -0.64179421 0.46629079 3.07403811
v -0.60676275 0.44083894 3.09903811
v -0.04555233 -0.01060590 1.78232233
v -0.65231508 0.43023304 3.08136044
v -0.02938926 -0.04045085 1.80000000
v -0.63615201 0.40038809 3.09903811
v 0.00398964 -0.04660024 1.81767767
v -0.60277311 0.39423869 3.11671578
v 0.03503146 -0.02545185 1.82500000
v -0.57173128 0.41538709 3.12403811
v 0.04555233 0.01060590 1.81767767
v -0.56121041 0.45144484 3.11671578
v 0.02938926 0.04045085 1.80000000
v -0.57737348 0.48128979 3.09903811
v -0.00398964 0.04660024 1.78232233
v -0.61075238 0.48743918 3.08136044
v 0.00000000 0.00000000 1.80000000
v -0.03503146 -0.02545185 1.77500000
v -0.64179421 -0.46629079 3.07403811
v -0.60676275 -0.44083894 3.09903811
v -0.00398964 -0.04660024 1.78232233
v -0.61075238 -0.48743918 3.08136044
v 0.02938926 -0.04045085 1.80000000
v -0.57737348 -0.48128979 3.09903811
v 0.04555233 -0.01060590 1.81767767
v -0.56121041 -0.45144484 3.11671578
v 0.03503146 0.02545185 1.82500000
v -0.57173128 -0.41538709 3.12403811
v 0.00398964 0.04660024 1.81767767
v -0.60277311 -0.39423869 3.11671578
v -0.02938926 0.04045085 1.80000000
v -0.63615201 -0.40038809 3.09903811
v -0.04555233 0.01060590 1.78232233
v -0.65231508 -0.43023304 3.08136044
v 0.00000000 0.00000000 1.80000000
v 0.01338083 -0.04118196 1.77500000
v 0.24514357 -0.75447434 3.07403811
v 0.23176275 -0.71329239 3.09903811
v 0.04308660 -0.01819464 1.78232233
v 0.27484935 -0.73148703 3.08136044
v 0.04755283 0.01545085 1.80000000
v 0.27931557 -0.69784154 3.09903811
v 0.02416325 0.04004544 1.81767767
v 0.25592600 -0.67324695 3.11671578
v -0.01338083 0.04118196 1.82500000
v 0.21838192 -0.67211043 3.12403811
v -0.04308660 0.01819464 1.81767767
v 0.18867615 -0.69509775 3.11671578
v -0.04755283 -0.01545085 1.80000000
v 0.18420992 -0.72874324 3.09903811
v -0.02416325 -0.04004544 1.78232233
v 0.20759949 -0.75333783 3.08136044
v -0.10514622 -0.12986984 1.80000000
v 0.10514622 -0.12986984 1.80000000
v -0.10514622 -0.47013016 1.80000000
v 0.10514622 -0.47013016 1.80000000
v 0.00000000 -0.40514622 1.97013016
v 0.00000000 -0.19485378 1.97013016
v 0.00000000 -0.40514622 1.62986984
v 0.00000000 -0.19485378 1.62986984
v 0.17013016 -0.30000000 1.69485378
v 0.17013016 -0.30000000 1.90514622
v -0.17013016 -0.30000000 1.69485378
v -0.17013016 -0.30000000 1.90514622
v 0.00000000 -0.10000000 1.80000000
v 0.00000000 -0.50000000 1.80000000
v -0.06180340 -0.46180340 1.90000000
v 0.06180340 -0.46180340 1.90000000
v -0.06180340 -0.13819660 1.90000000
v 0.06180340 -0.13819660 1.90000000
v 0.00000000 -0.30000000 2.00000000
v -0.06180340 -0.46180340 1.70000000
v 0.06180340 -0.46180340 1.70000000
v -0.06180340 -0.13819660 1.70000000
v 0.06180340 -0.13819660 1.70000000
v 0.00000000 -0.30000000 1.60000000
v 0.16180340 -0.20000000 1.73819660
v 0.16180340 -0.40000000 1.73819660
v 0.10000000 -0.36180340 1.63819660
v 0.10000000 -0.23819660 1.63819660
v 0.16180340 -0.20000000 1.86180340
v 0.16180340 -0.40000000 1.86180340
v 0.10000000 -0.36180340 1.96180340
v 0.10000000 -0.23819660 1.96180340
v 0.20000000 -0.30000000 1.80000000
v -0.16180340 -0.20000000 1.73819660
v -0.16180340 -0.40000000 1.73819660
v -0.10000000 -0.36180340 1.63819660
v -0.10000000 -0.23819660 1.63819660
v -0.16180340 -0.20000000 1.86180340
v -0.16180340 -0.40000000 1.86180340
v -0.10000000 -0.36180340 1.96180340
v -0.10000000 -0.23819660 1.96180340
v -0.20000000 -0.30000000 1.80000000
v -0.05465331 -0.10761233 1.80000000
v 0.05465331 -0.10761233 1.80000000
v -0.05465331 -0.49238767 1.80000000
v 0.05465331 -0.49238767 1.80000000
v -0.08677771 -0.47253370 1.85197838
v -0.03212441 -0.43875610 1.94040929
v -0.03249197 -0.49021130 1.85257311
v 0.08677771 -0.47253370 1.85197838
v 0.03212441 -0.43875610 1.94040929
v 0.03249197 -0.49021130 1.85257311
v 0.00000000 -0.47013016 1.90514622
v -0.08677771 -0.12746630 1.85197838
v -0.03212441 -0.16124390 1.94040929
v -0.03249197 -0.10978870 1.85257311
v 0.08677771 -0.12746630 1.85197838
v 0.03212441 -0.16124390 1.94040929
v 0.03249197 -0.10978870 1.85257311
v 0.00000000 -0.12986984 1.90514622
v 0.00000000 -0.35465331 1.99238767
v 0.00000000 -0.24534669 1.99238767
v -0.08677771 -0.47253370 1.74802162
v -0.03212441 -0.43875610 1.65959071
v -0.03249197 -0.49021130 1.74742689
v 0.08677771 -0.47253370 1.74802162
v 0.03212441 -0.43875610 1.65959071
v 0.03249197 -0.49021130 1.74742689
v 0.00000000 -0.47013016 1.69485378
v -0.08677771 -0.12746630 1.74802162
v -0.03212441 -0.16124390 1.65959071
v -0.03249197 -0.10978870 1.74742689
v 0.08677771 -0.12746630 1.74802162
v 0.03212441 -0.16124390 1.65959071
v 0.03249197 -0.10978870 1.74742689
v 0.00000000 -0.12986984 1.69485378
v 0.00000000 -0.35465331 1.60761233
v 0.00000000 -0.24534669 1.60761233
v 0.13875610 -0.15959071 1.76787559
v 0.17253370 -0.24802162 1.71322229
v 0.11755705 -0.16236181 1.71493492
v 0.13875610 -0.44040929 1.76787559
v 0.17253370 -0.35197838 1.71322229
v 0.11755705 -0.43763819 1.71493492
v 0.05197838 -0.38677771 1.62746630
v 0.14040929 -0.33212441 1.66124390
v 0.08506508 -0.41755705 1.66236181
v 0.05257311 -0.33249197 1.60978870
v 0.13763819 -0.38506508 1.68244295
v 0.05197838 -0.21322229 1.62746630
v 0.14040929 -0.26787559 1.66124390
v 0.08506508 -0.18244295 1.66236181
v 0.05257311 -0.26750803 1.60978870
v 0.13763819 -0.21493492 1.68244295
v 0.10514622 -0.30000000 1.62986984
v 0.13875610 -0.15959071 1.83212441
v 0.17253370 -0.24802162 1.88677771
v 0.11755705 -0.16236181 1.88506508
v 0.17013016 -0.19485378 1.80000000
v 0.13875610 -0.44040929 1.83212441
v 0.17253370 -0.35197838 1.88677771
v 0.11755705 -0.43763819 1.88506508
v 0.17013016 -0.40514622 1.80000000
v 0.05197838 -0.38677771 1.97253370
v 0.14040929 -0.33212441 1.93875610
v 0.08506508 -0.41755705 1.93763819
v 0.05257311 -0.33249197 1.99021130
v 0.13763819 -0.38506508 1.91755705
v 0.05197838 -0.21322229 1.97253370
v 0.14040929 -0.26787559 1.93875610
v 0.08506508 -0.18244295 1.93763819
v 0.05257311 -0.26750803 1.99021130
v 0.13763819 -0.21493492 1.91755705
v 0.10514622 -0.30000000 1.97013016
v 0.19238767 -0.30000000 1.74534669
v 0.19238767 -0.30000000 1.85465331
v 0.19021130 -0.24742689 1.76750803
v 0.19021130 -0.35257311 1.76750803
v 0.19021130 -0.24742689 1.83249197
v 0.19021130 -0.35257311 1.83249197
v -0.13875610 -0.15959071 1.76787559
v -0.17253370 -0.24802162 1.71322229
v -0.11755705 -0.16236181 1.71493492
v -0.13875610 -0.44040929 1.76787559
v -0.17253370 -0.35197838 1.71322229
v -0.11755705 -0.43763819 1.71493492
v -0.05197838 -0.38677771 1.62746630
v -0.14040929 -0.33212441 1.66124390
v -0.08506508 -0.41755705 1.66236181
v -0.05257311 -0.33249197 1.60978870
v -0.13763819 -0.38506508 1.68244295
v -0.05197838 -0.21322229 1.62746630
v -0.14040929 -0.26787559 1.66124390
v -0.08506508 -0.18244295 1.66236181
v -0.05257311 -0.26750803 1.60978870
v -0.13763819 -0.21493492 1.68244295
v -0.10514622 -0.30000000 1.62986984
v -0.13875610 -0.15959071 1.83212441
v -0.17253370 -0.24802162 1.88677771
v -0.11755705 -0.16236181 1.88506508
v -0.17013016 -0.19485378 1.80000000
v -0.13875610 -0.44040929 1.83212441
v -0.17253370 -0.35197838 1.88677771
v -0.11755705 -0.43763819 1.88506508
v -0.17013016 -0.40514622 1.80000000
v -0.05197838 -0.38677771 1.97253370
v -0.14040929 -0.33212441 1.93875610
v -0.08506508 -0.41755705 1.93763819
v -0.05257311 -0.33249197 1.99021130
v -0.13763819 -0.38506508 1.91755705
v -0.05197838 -0.21322229 1.97253370
v -0.14040929 -0.26787559 1.93875610
v -0.08506508 -0.18244295 1.93763819
v -0.05257311 -0.26750803 1.99021130
v -0.13763819 -0.21493492 1.91755705
v -0.10514622 -0.30000000 1.97013016
v -0.19238767 -0.30000000 1.74534669
v -0.19238767 -0.30000000 1.85465331
v -0.19021130 -0.24742689 1.76750803
v -0.19021130 -0.35257311 1.76750803
v -0.19021130 -0.24742689 1.83249197
v -0.19021130 -0.35257311 1.83249197
f 2 1 5
f 2 5 3
f 3 5 6
f 3 6 4
f 5 1 7
f 5 7 6
f 6 7 8
f 6 8 4
f 7 1 9
f 7 9 8
f 8 9 10
f 8 10 4
f 9 1 11
f 9 11 10
f 10 11 12
f 10 12 4
f 11 1 13
f 11 13 12
f 12 13 14
f 12 14 4
f 13 1 15
f 13 15 14
f 14 15 16
f 14 16 4
f 15 1 17
f 15 17 16
f 16 17 18
f 16 18 4
f 17 1 19
f 17 19 18
f 18 19 20
f 18 20 4
f 19 1 21
f 19 21 20
f 20 21 22
f 20 22 4
f 21 1 23
f 21 23 22
f 22 23 24
f 22 24 4
f 23 1 25
f 23 25 24
f 24 25 26
f 24 26 4
f 25 1 27
f 25 27 26
f 26 27 28
f 26 28 4
f 27 1 29
f 27 29 28
f 28 29 30
f 28 30 4
f 29 1 31
f 29 31 30
f 30 31 32
f 30 32 4
f 31 1 33
f 31 33 32
f 32 33 34
f 32 34 4
f 33 1 2
f 33 2 34
f 34 2 3
f 34 3 4
f 36 35 39
f 36 39 37
f 37 39 40
f 37 40 38
f 39 35 41
f 39 41 40
f 40 41 42
f 40 42 38
f 41 35 43
f 41 43 42
f 42 43 44
f 42 44 38
f 43 35 45
f 43 45 44
f 44 45 46
f 44 46 38
f 45 35 47
f 45 47 46
f 46 47 48
f 46 48 38
f 47 35 49
f 47 49 48
f 48 49 50
f 48 50 38
f 49 35 51
f 49 51 50
f 50 51 52
f 50 52 38
f 51 35 36
f 51 36 52
f 52 36 37
f 52 37 38
f 54 53 57
f 54 57 55
f 55 57 58
f 55 58 56
f 57 53 59
f 57 59 58
f 58 59 60
f 58 60 56
f 59 53 61
f 59 61 60
f 60 61 62
f 60 62 56
f 61 53 63
f 61 63 62
f 62 63 64
f 62 64 56
f 63 53 65
f 63 65 64
f 64 65 66
f 64 66 56
f 65 53 67
f 65 67 66
f 66 67 68
f 66 68 56
f 67 53 69
f 67 69 68
f 68 69 70
f 68 70 56
f 69 53 54
f 69 54 70
f 70 54 55
f 70 55 56
f 72 71 75
f 72 75 73
f 73 75 76
f 73 76 74
f 75 71 77
f 75 77 76
f 76 77 78
f 76 78 74
f 77 71 79
f 77 79 78
f 78 79 80
f 78 80 74
f 79 71 81
f 79 81 80
f 80 81 82
f 80 82 74
f 81 71 83
f 81 83 82
f 82 83 84
f 82 84 74
f 83 71 85
f 83 85 84
f 84 85 86
f 84 86 74
f 85 71 87
f 85 87 86
f 86 87 88
f 86 88 74
f 87 71 72
f 87 72 88
f 88 72 73
f 88 73 74
f 90 89 93
f 90 93 91
f 91 93 94
f 91 94 92
f 93 89 95
f 93 95 94
f 94 95 96
f 94 96 92
f 95 89 97
f 95 97 96
f 96 97 98
f 96 98 92
f 97 89 99
f 97 99 98
f 98 99 100
f 98 100 92
f 99 89 101
f 99 101 100
f 100 101 102
f 100 102 92
f 101 89 103
f 101 103 102
f 102 103 104
f 102 104 92
f 103 89 105
f 103 105 104
f 104 105 106
f 104 106 92
f 105 89 90
f 105 90 106
f 106 90 91
f 106 91 92
f 108 107 111
f 108 111 109
f 109 111 112
f 109 112 110
f 111 107 113
f 111 113 112
f 112 113 114
f 112 114 110
f 113 107 115
f 113 115 114
f 114 115 116
f 114 116 110
f 115 107 117
f 115 117 116
f 116 117 118
f 116 118 110
f 117 107 119
f 117 119 118
f 118 119 120
f 118 120 110
f 119 107 121
f 119 121 120
f 120 121 122
f 120 122 110
f 121 107 123
f 121 123 122
f 122 123 124
f 122 124 110
f 123 107 108
f 123 108 124
f 124 108 109
f 124 109 110
f 125 262 178
f 262 162 264
f 178 264 141
f 262 264 178
f 162 263 279
f 263 136 276
f 279 276 165
f 263 276 279
f 141 277 179
f 277 165 275
f 179 275 130
f 277 275 179
f 162 279 264
f 279 165 277
f 264 277 141
f 279 277 264
f 125 178 167
f 178 141 180
f 167 180 137
f 178 180 167
f 141 179 184
f 179 130 182
f 184 182 142
f 179 182 184
f 137 183 168
f 183 142 181
f 168 181 126
f 183 181 168
f 141 184 180
f 184 142 183
f 180 183 137
f 184 183 180
f 125 167 194
f 167 137 196
f 194 196 146
f 167 196 194
f 137 168 199
f 168 126 197
f 199 197 147
f 168 197 199
f 146 200 195
f 200 147 198
f 195 198 132
f 200 198 195
f 137 199 196
f 199 147 200
f 196 200 146
f 199 200 196
f 125 194 245
f 194 146 247
f 245 247 158
f 194 247 245
f 146 195 258
f 195 132 256
f 258 256 161
f 195 256 258
f 158 260 246
f 260 161 257
f 246 257 135
f 260 257 246
f 146 258 247
f 258 161 260
f 247 260 158
f 258 260 247
f 125 245 262
f 245 158 265
f 262 265 162
f 245 265 262
f 158 246 283
f 246 135 281
f 283 281 166
f 246 281 283
f 162 285 263
f 285 166 282
f 263 282 136
f 285 282 263
f 158 283 265
f 283 166 285
f 265 285 162
f 283 285 265
f 126 181 220
f 181 142 222
f 220 222 153
f 181 222 220
f 142 182 235
f 182 130 233
f 235 233 156
f 182 233 235
f 153 237 221
f 237 156 234
f 221 234 134
f 237 234 221
f 142 235 222
f 235 156 237
f 222 237 153
f 235 237 222
f 130 275 186
f 275 165 278
f 186 278 143
f 275 278 186
f 165 276 280
f 276 136 271
f 280 271 164
f 276 271 280
f 143 273 185
f 273 164 270
f 185 270 129
f 273 270 185
f 165 280 278
f 280 164 273
f 278 273 143
f 280 273 278
f 136 282 267
f 282 166 286
f 267 286 163
f 282 286 267
f 166 281 284
f 281 135 249
f 284 249 159
f 281 249 284
f 163 269 266
f 269 159 248
f 266 248 127
f 269 248 266
f 166 284 286
f 284 159 269
f 286 269 163
f 284 269 286
f 135 257 252
f 257 161 261
f 252 261 160
f 257 261 252
f 161 256 259
f 256 132 202
f 259 202 148
f 256 202 259
f 160 254 251
f 254 148 201
f 251 201 131
f 254 201 251
f 161 259 261
f 259 148 254
f 261 254 160
f 259 254 261
f 132 198 214
f 198 147 216
f 214 216 152
f 198 216 214
f 147 197 205
f 197 126 203
f 205 203 149
f 197 203 205
f 152 218 215
f 218 149 204
f 215 204 133
f 218 204 215
f 147 205 216
f 205 149 218
f 216 218 152
f 205 218 216
f 128 224 174
f 224 154 226
f 174 226 140
f 224 226 174
f 154 225 232
f 225 134 229
f 232 229 155
f 225 229 232
f 140 230 175
f 230 155 228
f 175 228 129
f 230 228 175
f 154 232 226
f 232 155 230
f 226 230 140
f 232 230 226
f 128 174 170
f 174 140 176
f 170 176 138
f 174 176 170
f 140 175 177
f 175 129 172
f 177 172 139
f 175 172 177
f 138 173 169
f 173 139 171
f 169 171 127
f 173 171 169
f 140 177 176
f 177 139 173
f 176 173 138
f 177 173 176
f 128 170 190
f 170 138 192
f 190 192 145
f 170 192 190
f 138 169 189
f 169 127 187
f 189 187 144
f 169 187 189
f 145 193 191
f 193 144 188
f 191 188 131
f 193 188 191
f 138 189 192
f 189 144 193
f 192 193 145
f 189 193 192
f 128 190 206
f 190 145 208
f 206 208 150
f 190 208 206
f 145 191 211
f 191 131 209
f 211 209 151
f 191 209 211
f 150 213 207
f 213 151 210
f 207 210 133
f 213 210 207
f 145 211 208
f 211 151 213
f 208 213 150
f 211 213 208
f 128 206 224
f 206 150 227
f 224 227 154
f 206 227 224
f 150 207 242
f 207 133 239
f 242 239 157
f 207 239 242
f 154 244 225
f 244 157 240
f 225 240 134
f 244 240 225
f 150 242 227
f 242 157 244
f 227 244 154
f 242 244 227
f 129 228 185
f 228 155 231
f 185 231 143
f 228 231 185
f 155 229 238
f 229 134 234
f 238 234 156
f 229 234 238
f 143 236 186
f 236 156 233
f 186 233 130
f 236 233 186
f 155 238 231
f 238 156 236
f 231 236 143
f 238 236 231
f 127 171 266
f 171 139 268
f 266 268 163
f 171 268 266
f 139 172 272
f 172 129 270
f 272 270 164
f 172 270 272
f 163 274 267
f 274 164 271
f 267 271 136
f 274 271 267
f 139 272 268
f 272 164 274
f 268 274 163
f 272 274 268
f 131 188 251
f 188 144 253
f 251 253 160
f 188 253 251
f 144 187 250
f 187 127 248
f 250 248 159
f 187 248 250
f 160 255 252
f 255 159 249
f 252 249 135
f 255 249 252
f 144 250 253
f 250 159 255
f 253 255 160
f 250 255 253
f 133 210 215
f 210 151 219
f 215 219 152
f 210 219 215
f 151 209 212
f 209 131 201
f 212 201 148
f 209 201 212
f 152 217 214
f 217 148 202
f 214 202 132
f 217 202 214
f 151 212 219
f 212 148 217
f 219 217 152
f 212 217 219
f 134 240 221
f 240 157 243
f 221 243 153
f 240 243 221
f 157 239 241
f 239 133 204
f 241 204 149
f 239 204 241
f 153 223 220
f 223 149 203
f 220 203 126
f 223 203 220
f 157 241 243
f 241 149 223
f 243 223 153
f 241 223 243

